# xmcd CD database file
#
# Track frame offsets:
#	150
#	18667
#	43319
#	68434
#	87834
#	107988
#	130702
#	161782
#	189153
#	209348
#	231171
#	251642
#
# Disc length: 3567 seconds
#
# Revision: 0
# Processed by: cddbd v1.5.1PL0 Copyright (c) Steve Scherf et al.
# Submitted via: Feurio! 1.67 - http://www.feurio.com
#
DISCID=a20ded0c
DTITLE=Van Wilks - Running From Ghosts
DYEAR=2005
DGENRE=blues
TTITLE0=Would You Go My Way
TTITLE1=On The Edge
TTITLE2=Morning Dew
TTITLE3=No More Wishes In Your Wishing Well
TTITLE4=Happy Hour At The Asylum
TTITLE5=The Eleventh Hour
TTITLE6=The Low Spark Of High Heeled Boys
TTITLE7=Down To Heaven
TTITLE8=Watchin' The World Go By
TTITLE9=1959
TTITLE10=Travelin'
TTITLE11=New Day Dawning
EXTD=
EXTT0=
EXTT1=
EXTT2=
EXTT3=
EXTT4=
EXTT5=
EXTT6=
EXTT7=
EXTT8=
EXTT9=
EXTT10=
EXTT11=
PLAYORDER=
